# xmcd CD database file
#
# Track frame offsets:
#	150
#	19625
#	35437
#	60562
#	74590
#	96390
#	115512
#	130610
#	150615
#	169780
#	201457
#	224225
#	242185
#	262782
#	279167
#	299365
#	312992
#
# Disc length: 4444 seconds
#
# Revision: 0
# Processed by: cddbd v1.5.1PL0 Copyright (c) Steve Scherf et al.
# Submitted via: CDex 1.51
#
DISCID=fb115a11
DTITLE=ZIGGY - VICISSITUDES OF FORTUNE [CD3]
DYEAR=2004
DGENRE=Rock
TTITLE0=GARDEN OF ROSES
TTITLE1=追憶の夜に宝石を散りばめて
TTITLE2=STROLLIN'
TTITLE3=12月の風になりたい
TTITLE4=STAY GOLD
TTITLE5=Jealousy
TTITLE6=春色の残像
TTITLE7=STEP BY STEP
TTITLE8=君をのせて
TTITLE9=暗流
TTITLE10=Guilty Vanity
TTITLE11=Back to Zero
TTITLE12=Silent Eve を待ちながら
TTITLE13=マケイヌ
TTITLE14=MONKEY
TTITLE15=嫌なこった
TTITLE16=VENUS
EXTD=YEAR: 2004.9.8
EXTT0=
EXTT1=
EXTT2=
EXTT3=
EXTT4=
EXTT5=
EXTT6=
EXTT7=
EXTT8=
EXTT9=
EXTT10=
EXTT11=
EXTT12=
EXTT13=
EXTT14=
EXTT15=
EXTT16=
PLAYORDER=
